HIERARCHY
ROOT Hips
{
    OFFSET 0.000000 0.000000 0.000000
    CHANNELS 6 Xposition Yposition Zposition Zrotation Xrotation Yrotation
    JOINT Spine
    {
        OFFSET -0.000000 14.517291 0.000000
        CHANNELS 3 Zrotation Xrotation Yrotation
        JOINT Spine1
        {
            OFFSET -0.000000 37.558300 0.000000
            CHANNELS 3 Zrotation Xrotation Yrotation
            JOINT Neck
            {
                OFFSET -0.000000 37.404057 3.400369
                CHANNELS 3 Zrotation Xrotation Yrotation
                JOINT Head
                {
                    OFFSET -0.000000 24.785618 -3.540803
                    CHANNELS 3 Zrotation Xrotation Yrotation
                    End Site
                    {
                        OFFSET -0.000000 35.408028 0.000000
                    }
                }
            }
            JOINT LeftShoulder
            {
                OFFSET 6.992933 33.973492 -0.192664
                CHANNELS 3 Zrotation Xrotation Yrotation
                JOINT LeftArm
                {
                    OFFSET 21.527611 0.000000 0.000000
                    CHANNELS 3 Zrotation Xrotation Yrotation
                    JOINT LeftForeArm
                    {
                        OFFSET 56.353916 0.000000 0.000000
                        CHANNELS 3 Zrotation Xrotation Yrotation
                        JOINT LeftHand
                        {
                            OFFSET 47.774071 0.000000 0.000000
                            CHANNELS 3 Zrotation Xrotation Yrotation
                            End Site
                            {
                                OFFSET 26.556021 0.000000 0.000000
                            }
                        }
                    }
                }
            }
            JOINT RightShoulder
            {
                OFFSET -7.065357 33.973492 -0.192664
                CHANNELS 3 Zrotation Xrotation Yrotation
                JOINT RightArm
                {
                    OFFSET -21.527611 0.000000 0.000000
                    CHANNELS 3 Zrotation Xrotation Yrotation
                    JOINT RightForeArm
                    {
                        OFFSET -56.353916 0.000000 0.000000
                        CHANNELS 3 Zrotation Xrotation Yrotation
                        JOINT RightHand
                        {
                            OFFSET -47.774071 0.000000 0.000000
                            CHANNELS 3 Zrotation Xrotation Yrotation
                            End Site
                            {
                                OFFSET -26.556021 0.000000 0.000000
                            }
                        }
                    }
                }
            }
        }
    }
    JOINT LeftUpLeg
    {
        OFFSET 17.704014 0.000000 0.000000
        CHANNELS 3 Zrotation Xrotation Yrotation
        JOINT LeftLeg
        {
            OFFSET -0.000000 -81.181816 0.000000
            CHANNELS 3 Zrotation Xrotation Yrotation
            JOINT LeftFoot
            {
                OFFSET -0.000000 -62.821102 0.000000
                CHANNELS 3 Zrotation Xrotation Yrotation
                JOINT LeftToeBase
                {
                    OFFSET -0.000000 -11.507608 26.556021
                    CHANNELS 3 Zrotation Xrotation Yrotation
                    End Site
                    {
                        OFFSET -0.000000 0.000000 7.081605
                    }
                }
            }
        }
    }
    JOINT RightUpLeg
    {
        OFFSET -17.704014 0.000000 0.000000
        CHANNELS 3 Zrotation Xrotation Yrotation
        JOINT RightLeg
        {
            OFFSET -0.000000 -81.181816 0.000000
            CHANNELS 3 Zrotation Xrotation Yrotation
            JOINT RightFoot
            {
                OFFSET -0.000000 -62.821102 0.000000
                CHANNELS 3 Zrotation Xrotation Yrotation
                JOINT RightToeBase
                {
                    OFFSET -0.000000 -11.507608 26.556021
                    CHANNELS 3 Zrotation Xrotation Yrotation
                    End Site
                    {
                        OFFSET -0.000000 0.000000 7.081605
                    }
                }
            }
        }
    }
}
MOTION
Frames:    5
Frame Time:    0.008333
-12.207883    150.451324    -3.779814    1.390912    1.127927    24.478096    -2.329231    2.909517    9.536339    -3.277760    -0.574425    3.143190    -1.433847    5.127220    -16.159098    13.157650    -8.781340    -13.859470    -1.089430    7.066652    -8.067850    -40.213501    29.878695    -34.321430    -1.884351    -12.186780    -49.953339    -12.869197    -10.886328    -19.364540    -0.554618    10.798384    0.397179    39.288692    14.148829    45.731686    -47.169762    -36.109985    40.477150    15.247326    -15.365795    33.434265    -2.907665    -34.679108    -28.377542    -15.824080    33.176319    -19.459641    -2.196301    -4.078687    30.041620    0.000000    0.000000    0.000000    2.225345    7.801818    -20.970530    3.744092    31.506023    -5.041091    1.463942    -35.478767    -8.105603    0.000000    0.000000    0.000000    
-12.196185    150.458389    -3.785503    1.406804    1.130859    24.487864    -2.320932    2.909350    9.533211    -3.284714    -0.575095    3.142158    -1.454873    5.141667    -16.156502    13.161911    -8.794115    -13.852413    -1.109212    7.074806    -8.071213    -40.234486    29.884378    -34.303207    -1.881581    -12.179572    -49.949444    -12.878390    -10.875020    -19.375092    -0.567378    10.801807    0.385745    39.317417    14.135577    45.728634    -47.120491    -36.108143    40.537495    15.237733    -15.361917    33.407703    -2.922689    -34.662243    -28.372377    -15.811964    33.144573    -19.480118    -2.215247    -4.062559    30.036465    0.000000    0.000000    0.000000    2.203627    7.809850    -20.976534    3.761010    31.499691    -5.081585    1.463745    -35.482655    -8.077392    0.000000    0.000000    0.000000    
-12.180048    150.464340    -3.792543    1.418997    1.136821    24.496704    -2.298158    2.902951    9.524533    -3.311781    -0.570734    3.139480    -1.445725    5.130251    -16.151073    13.120313    -8.780669    -13.857952    -1.116191    7.083360    -8.054471    -40.250195    29.906199    -34.300865    -1.865296    -12.183665    -49.962292    -12.915451    -10.866025    -19.372253    -0.568310    10.803191    0.372232    39.330086    14.125714    45.736866    -47.054482    -36.110477    40.607037    15.209808    -15.371560    33.379242    -2.945370    -34.654984    -28.363325    -15.790672    33.131546    -19.521725    -2.230493    -4.047806    30.044096    0.000000    0.000000    0.000000    2.180327    7.807981    -20.967299    3.768513    31.508074    -5.029924    1.432339    -35.476002    -8.140712    0.000000    0.000000    0.000000    
-12.176365    150.470947    -3.798538    1.421908    1.140765    24.500164    -2.293360    2.896339    9.522653    -3.299551    -0.572985    3.138942    -1.444841    5.147339    -16.147379    13.087437    -8.808545    -13.858335    -1.141652    7.079630    -8.053917    -40.275940    29.907553    -34.266357    -1.900509    -12.164918    -49.991936    -12.883863    -10.869220    -19.373005    -0.590198    10.808253    0.371787    39.356907    14.120257    45.729969    -47.012810    -36.117523    40.662842    15.218151    -15.370136    33.366333    -2.942852    -34.648682    -28.372356    -15.793711    33.101955    -19.532732    -2.248328    -4.042590    30.059296    0.000000    0.000000    0.000000    2.176526    7.814814    -20.954792    3.785735    31.480453    -5.068146    1.454743    -35.467922    -8.118995    0.000000    0.000000    0.000000    
-12.165444    150.477829    -3.803035    1.432857    1.139983    24.501633    -2.280586    2.892833    9.524642    -3.313804    -0.566300    3.139857    -1.438926    5.145555    -16.146112    13.067324    -8.807302    -13.862052    -1.137579    7.091184    -8.054399    -40.307297    29.912676    -34.261242    -1.914820    -12.162011    -50.011883    -12.823262    -10.886088    -19.350317    -0.585115    10.809436    0.351071    39.350574    14.137520    45.746647    -47.015884    -36.107979    40.664341    15.190743    -15.368238    33.342155    -2.954131    -34.632690    -28.375637    -15.790245    33.075657    -19.524330    -2.264365    -4.028820    30.056124    0.000000    0.000000    0.000000    2.165345    7.832284    -20.955063    3.795506    31.451561    -5.103276    1.445947    -35.469276    -8.101293    0.000000    0.000000    0.000000    
